<svg xmlns="http://www.w3.org/2000/svg" xmlns:xlink="http://www.w3.org/1999/xlink" id="Layer_1" x="0" y="0" version="1.1" viewBox="0 0 496 496" xml:space="preserve" style="enable-background:new 0 0 496 496"><path style="fill:#ed3432" d="M496,369.6c0,27.2-21.6,46.4-48,46.4H48c-26.4,0-48-19.2-48-46.4V126.4C0,99.2,21.6,80,48,80h400	c26.4,0,48,19.2,48,46.4V369.6z"/><path style="fill:#d00" d="M48,80h400c26.4,0,48,19.2,48,46.4v243.2c0,27.2-24.8,46.4-51.2,46.4"/><g><path style="fill:#cc0202" d="M48,80h400c26.4,0,48,19.2,48,46.4V216"/><path style="fill:#cc0202" d="M496,368.8c0,29.6-21.6,47.2-48,47.2H48c-26.4,0-48-20.8-48-48"/></g><polygon style="fill:#fdce0c" points="248 159.2 268.8 224 337.6 224 282.4 266.4 303.2 332 248 292 192.8 332.8 213.6 265.6 158.4 224 227.2 224"/><polygon style="fill:#fc9c10" points="268.8 224 248 159.2 227.2 224 224.8 224 286.4 278.4 282.4 264.8 337.6 224"/></svg>